<?xml version="1.0" standalone="no"?>
<!DOCTYPE svg PUBLIC "-//W3C//DTD SVG 20010904//EN"
 "http://www.w3.org/TR/2001/REC-SVG-20010904/DTD/svg10.dtd">
<svg version="1.0" xmlns="http://www.w3.org/2000/svg"
 width="80.000000pt" height="80.000000pt" viewBox="0 0 80.000000 80.000000"
 preserveAspectRatio="xMidYMid meet">
<metadata>
Created by potrace 1.11, written by Peter Selinger 2001-2013
</metadata>
<g transform="translate(0.000000,80.000000) scale(0.100000,-0.100000)"
fill="#000000" stroke="none">
<path d="M303 737 l-101 -62 -4 -78 c-1 -42 0 -77 3 -77 16 0 28 30 31 75 3
49 4 50 66 91 112 73 98 72 190 14 l82 -52 0 -183 c0 -150 -3 -185 -15 -195
-23 -19 -19 -66 7 -84 30 -21 44 -20 68 4 25 25 25 55 0 80 -19 19 -20 33 -20
210 l0 190 -67 43 c-38 24 -84 53 -104 65 l-35 21 -101 -62z"/>
<path d="M650 416 c0 -19 10 -32 43 -52 23 -15 45 -32 49 -38 13 -19 9 -183
-4 -193 -7 -6 -45 -27 -84 -48 l-71 -38 -154 87 c-123 70 -157 94 -169 119
-27 58 -110 41 -110 -23 0 -39 32 -64 71 -56 27 5 54 -7 191 -84 87 -49 163
-90 169 -90 6 0 58 25 115 56 l104 56 -6 121 c-4 69 -11 127 -18 133 -6 6 -37
26 -68 43 l-58 32 0 -25z"/>
<path d="M283 413 c-23 -9 -13 -20 47 -52 l60 -32 0 -64 c0 -59 8 -75 36 -75
2 0 4 31 4 69 l0 70 50 27 c32 17 50 34 50 46 0 24 -10 23 -74 -9 l-54 -26
-45 26 c-47 28 -53 29 -74 20z"/>
<path d="M153 326 l-53 -31 0 -67 0 -67 55 -31 c53 -30 55 -31 85 -15 40 21
31 30 -27 30 -37 1 -50 6 -69 28 -35 41 -32 88 7 121 54 46 94 34 151 -45 l17
-24 1 35 c0 33 -4 38 -57 66 l-58 31 -52 -31z"/>
</g>
</svg>
